<svg width="48" height="48" viewBox="0 0 48 48" fill="none" xmlns="http://www.w3.org/2000/svg">
<path d="M26 14.3529C26 20 25 20 16 20C7 20 6 20 6 14C6 8 7 8 16 8C25 8 26 8 26 14.3529Z" stroke="#2668FA" stroke-width="3" stroke-linecap="round" stroke-linejoin="round"/>
<path d="M22 33.6471C22 28 23 28 32 28C41 28 42 28 42 34C42 40 41 40 32 40C23 40 22 40 22 33.6471Z" stroke="#2668FA" stroke-width="3" stroke-linecap="round" stroke-linejoin="round"/>
<path d="M42 14.3529C42 20 41.2 20 38 20C34.8 20 34 20 34 14C34 8 34.8 8 38 8C41.5 8 42 8 42 14.3529Z" stroke="#2668FA" stroke-width="3" stroke-linecap="round" stroke-linejoin="round"/>
<path d="M6 33.6471C6 28 6.8 28 10 28C13.2 28 14 28 14 34C14 40 13.2 40 10 40C6.5 40 6 40 6 33.6471Z" stroke="#2668FA" stroke-width="3" stroke-linecap="round" stroke-linejoin="round"/>
</svg>
